<svg xmlns="http://www.w3.org/2000/svg" viewBox="0 0 210 210" id="pinterest">
  <path fill="#000000" d="M 6.6145832,4.9480184 V 64.201248 L 65.867298,4.9480184 Z M 205.05208,144.13228 145.79885,203.38552 h 59.25323 z" paint-order="fill markers stroke" class="colorff0000 svgShape"></path>
  <path fill="#000000" d="m 106.80793,39.37932 c -3.31029,0.031 -6.68254,0.21721 -8.736838,0.54555 -7.003243,1.11878 -12.413663,2.8477 -17.828688,5.69748 -14.672496,7.72175 -23.852348,23.1762 -23.861403,40.17282 -0.007,12.39436 6.476079,25.48193 14.745141,29.76926 1.535679,0.7961 2.113544,0.96528 2.381233,0.69764 0.349126,-0.34916 2.724807,-9.50013 2.724807,-10.49557 0,-0.28296 -0.42466,-1.04923 -0.944591,-1.70231 -1.508236,-1.8944 -3.578733,-6.47317 -4.413989,-9.76124 -0.954364,-3.757 -1.259829,-8.52087 -0.777428,-12.12837 2.042476,-15.27385 13.08004,-26.76618 28.275357,-29.43967 3.616739,-0.6365 10.453779,-0.63422 14.083179,0.004 10.25565,1.80405 18.41332,7.73829 22.74779,16.54798 2.11916,4.30683 3.03514,8.09873 3.25072,13.45036 0.75964,18.86179 -7.7506,34.47855 -20.31219,37.27323 -3.33632,0.74228 -7.61586,0.50117 -9.91528,-0.55962 -3.89825,-1.79834 -6.58568,-5.58667 -6.87312,-9.68805 -0.17006,-2.42512 0.32772,-4.62576 3.14272,-13.91049 3.64826,-12.03325 4.19318,-15.872 2.86463,-20.17318 -0.86781,-2.80991 -3.0453,-5.05289 -5.63739,-5.80639 -2.579761,-0.74992 -5.404883,-0.48386 -7.898323,0.74366 -2.230147,1.0979 -5.040979,3.89563 -6.348233,6.3182 -2.975105,5.5132 -3.368942,13.91146 -0.968094,20.63878 l 0.722997,2.02629 -4.709717,19.96474 c -2.590445,10.98066 -4.878053,21.12031 -5.083448,22.53289 -0.368302,2.53256 -0.222032,15.12692 0.206533,17.81935 0.007,0.0475 0.007,8.99864 0.01401,9.04246 l 6.172558,-8.92801 c 0.06305,-0.10841 0.118039,-0.20792 0.183135,-0.31841 2.710359,-4.60532 6.205571,-12.00063 7.301248,-15.44945 0.560457,-1.76388 2.034245,-7.10713 3.275036,-11.87385 1.469515,-5.64498 2.410078,-8.72525 2.697627,-8.83548 0.24268,-0.0933 0.500509,0.0275 0.572769,0.26645 0.07233,0.24028 1.111089,1.40417 2.308832,2.5858 6.11997,6.03787 16.40022,7.47281 27.00127,3.76989 5.38515,-1.88105 9.67341,-4.64889 14.11892,-9.11344 9.37679,-9.417 14.52611,-23.67993 13.95267,-38.64971 -0.44998,-11.74769 -4.44534,-20.92196 -12.71139,-29.18804 -7.3548,-7.35484 -16.06279,-11.63943 -27.35615,-13.46171 -1.80822,-0.29191 -5.05662,-0.41525 -8.367,-0.38403 z" class="colorff0000 svgShape"></path>
</svg>
