<svg xmlns="http://www.w3.org/2000/svg" xml:space="preserve" viewBox="0 0 100 100" id="Twitter">
  <path d="M84.803 46.564c5.055-.417 8.483-2.715 9.803-5.833-1.824 1.12-7.483 2.341-10.609 1.178a38.64 38.64 0 0 0-.492-2.062c-2.382-8.746-10.537-15.792-19.082-14.941a36.1 36.1 0 0 1 2.092-.772c.94-.337 6.459-1.235 5.59-3.183-.732-1.713-7.475 1.295-8.744 1.688 1.676-.63 4.447-1.714 4.744-3.64-2.567.352-5.088 1.566-7.035 3.331.703-.757 1.236-1.679 1.35-2.672-6.848 4.375-10.848 13.195-14.085 21.75-2.542-2.463-4.795-4.403-6.816-5.48-5.67-3.041-12.449-6.213-23.091-10.164-.327 3.521 1.741 8.203 7.7 11.316-1.291-.173-3.652.213-5.54.665.769 4.034 3.28 7.357 10.079 8.964-3.107.205-4.713.912-6.168 2.436 1.415 2.805 4.868 6.107 11.08 5.429-6.906 2.977-2.816 8.49 2.804 7.667-9.59 9.902-24.704 9.175-33.383.893 22.661 30.88 71.921 18.264 79.262-11.481 5.5.048 8.733-1.904 10.738-4.056-3.169.537-7.762-.019-10.197-1.033" fill="#000000" class="color000000 svgShape"></path>
</svg>
